<?xml version="1.0" standalone="no"?>
<!DOCTYPE svg PUBLIC "-//W3C//DTD SVG 20010904//EN"
 "http://www.w3.org/TR/2001/REC-SVG-20010904/DTD/svg10.dtd">
<svg version="1.0" xmlns="http://www.w3.org/2000/svg"
 width="253.781569pt" height="90.715137pt" viewBox="0 0 253.781569 90.715137"
 preserveAspectRatio="xMidYMid meet">
<metadata>
Created by potrace 1.12, written by Peter Selinger 2001-2015
</metadata>
<g transform="translate(-123.109215,286.862862) scale(0.100000,-0.100000)"
fill="#000000" stroke="none">
<path d="M2693 2859 c-37 -11 -44 -38 -13 -46 19 -5 20 -14 20 -169 0 -161 5
-188 33 -166 8 7 25 7 53 0 34 -10 47 -8 79 8 21 10 47 31 58 45 25 35 26 107
1 150 -25 43 -84 67 -125 52 l-28 -11 -3 72 c-3 79 -10 84 -75 65z m156 -195
c49 -62 1 -176 -59 -144 -17 9 -20 21 -20 85 0 49 4 75 13 78 27 12 47 6 66
-19z"/>
<path d="M3073 2863 c-41 -8 -56 -53 -17 -53 11 0 14 -25 14 -144 0 -138 -1
-144 -21 -149 -12 -3 -19 -12 -17 -19 6 -18 140 -18 146 0 2 7 -5 16 -17 19
-20 5 -21 13 -23 177 -3 187 -1 182 -65 169z"/>
<path d="M1585 2735 c-5 -2 -22 -6 -37 -9 -33 -7 -38 -35 -8 -43 18 -5 20 -14
20 -83 0 -69 -2 -78 -20 -83 -11 -3 -20 -12 -20 -22 0 -13 11 -15 72 -13 48 2
73 7 76 16 2 7 -5 16 -17 19 -19 5 -21 13 -21 79 0 68 2 75 23 83 44 17 57 -2
57 -84 0 -60 -3 -75 -15 -75 -8 0 -15 -9 -15 -20 0 -19 5 -21 67 -18 44 2 68
7 71 16 2 7 -5 16 -17 19 -19 5 -21 13 -21 72 0 74 10 91 51 91 31 0 39 -18
39 -98 0 -46 -3 -55 -20 -59 -11 -3 -20 -14 -20 -24 0 -17 8 -19 70 -19 63 0
70 2 70 20 0 11 -6 20 -14 20 -10 0 -15 22 -18 85 -3 63 -9 89 -23 105 -25 28
-77 35 -115 16 -28 -14 -34 -14 -65 1 -28 13 -41 14 -70 6 -20 -7 -37 -7 -41
-2 -5 9 -20 10 -39 4z"/>
<path d="M2111 2727 c-13 -6 -29 -19 -34 -28 -14 -22 0 -69 19 -69 11 0 7 -9
-15 -29 -34 -32 -39 -64 -16 -98 21 -29 76 -39 113 -21 24 13 31 13 50 0 26
-17 72 -9 72 14 0 8 -7 17 -15 20 -11 5 -15 23 -15 74 0 89 -12 117 -55 135
-42 18 -72 19 -104 2z m77 -39 c7 -7 12 -22 12 -35 0 -19 -5 -23 -31 -23 -18
0 -28 4 -24 10 4 6 1 17 -5 25 -23 28 21 50 48 23z m12 -113 c0 -20 -38 -57
-53 -52 -20 6 -20 40 -1 54 24 18 54 17 54 -2z"/>
<path d="M2421 2727 c-41 -14 -52 -36 -22 -44 19 -5 21 -12 21 -83 0 -71 -2
-78 -21 -83 -12 -3 -19 -12 -17 -19 3 -9 25 -13 73 -13 48 0 70 4 73 13 2 7
-5 16 -17 19 -19 5 -21 13 -21 72 0 62 10 91 32 91 5 0 8 -8 6 -17 -5 -28 47
-30 62 -3 24 45 -24 94 -70 70 -16 -9 -25 -9 -33 -1 -13 13 -23 13 -66 -2z"/>
<path d="M3345 2731 c-31 -14 -64 -54 -75 -91 -20 -69 25 -151 91 -165 59 -13
139 25 139 66 0 25 -31 25 -53 -1 -24 -28 -61 -25 -86 6 -36 46 -29 54 48 54
48 0 72 4 81 15 16 20 4 68 -25 95 -25 24 -88 35 -120 21z m75 -71 c0 -17 -7
-20 -40 -20 -45 0 -50 10 -20 40 16 16 25 18 40 10 11 -6 20 -20 20 -30z"/>
<path d="M3612 2548 c-16 -16 -15 -53 3 -68 19 -16 45 -10 61 15 26 39 -31 86
-64 53z"/>
<path d="M2779 2386 c-13 -23 -31 -33 -92 -53 -43 -13 -77 -29 -77 -34 0 -7 7
-8 18 -3 38 16 133 47 135 43 2 -2 0 -46 -3 -97 -4 -78 -8 -96 -25 -108 -28
-21 -49 -13 -53 19 -4 32 -17 35 -32 6 -7 -11 -14 -18 -17 -15 -11 11 27 55
42 50 8 -4 15 -1 15 5 0 18 -35 13 -53 -7 -9 -10 -33 -51 -52 -91 -19 -39 -40
-69 -45 -66 -14 9 -12 68 6 174 9 51 13 95 10 98 -19 19 -51 -183 -38 -243 11
-54 35 -56 58 -5 14 30 25 41 42 41 12 0 22 3 22 8 0 4 4 14 9 21 8 12 13 11
30 -10 19 -23 21 -24 50 -7 l31 17 0 -69 c0 -39 4 -70 9 -70 5 0 11 78 13 174
2 96 6 177 10 181 4 4 36 10 72 12 36 3 63 10 60 15 -3 5 -32 6 -64 2 -56 -6
-58 -5 -62 17 -3 24 -4 24 -19 -5z"/>
<path d="M2070 2238 c-6 -40 -14 -83 -16 -95 -2 -13 -17 -29 -34 -38 -26 -13
-30 -13 -44 1 -19 18 -19 14 -5 52 7 22 15 29 26 25 11 -4 14 -2 11 8 -10 29
-37 21 -55 -15 -33 -71 18 -122 81 -81 l25 17 3 -48 c2 -26 8 -49 14 -51 6 -2
21 23 33 56 25 69 41 86 41 42 0 -40 17 -48 46 -20 24 22 24 22 24 1 0 -32 21
-38 42 -12 18 23 23 57 12 98 -9 31 -18 25 -57 -33 -18 -27 -37 -50 -42 -50
-6 0 -11 17 -13 38 -5 60 -23 47 -65 -48 l-17 -40 4 100 c3 55 8 115 12 133 4
20 3 32 -4 32 -6 0 -15 -33 -22 -72z m181 -145 c-9 -16 -10 -15 -11 9 0 14 3
35 8 45 6 15 8 14 10 -9 2 -15 -1 -35 -7 -45z"/>
<path d="M1258 2203 c61 -2 163 -2 225 0 61 1 11 3 -113 3 -124 0 -174 -2
-112 -3z"/>
<path d="M2328 2193 c-26 -30 -31 -62 -14 -88 20 -31 54 -32 90 -4 l26 20 0
-25 c0 -35 20 -43 42 -16 18 23 23 57 12 98 -9 31 -19 28 -45 -14 -24 -40 -74
-75 -95 -67 -17 6 -18 46 -3 74 5 11 15 17 21 13 6 -4 9 -1 6 6 -7 21 -23 22
-40 3z m133 -100 c-9 -16 -10 -15 -11 9 0 14 3 35 8 45 6 15 8 14 10 -9 2 -15
-1 -35 -7 -45z"/>
<path d="M2827 2192 c-10 -10 -17 -33 -17 -50 0 -41 35 -52 79 -26 30 18 31
18 55 -5 l25 -24 -29 -34 c-37 -42 -42 -96 -9 -91 32 4 63 52 63 95 0 31 6 40
43 66 54 39 48 49 -8 13 -38 -26 -42 -26 -65 -11 -27 17 -32 43 -9 51 8 4 13
10 10 15 -9 13 -31 0 -43 -26 -6 -13 -25 -31 -43 -40 -29 -16 -33 -16 -48 0
-13 14 -13 18 -2 22 22 9 52 43 46 53 -10 15 -30 12 -48 -8z m129 -187 c-9
-14 -21 -25 -26 -25 -17 0 -11 26 12 56 19 24 23 25 26 11 2 -10 -4 -29 -12
-42z"/>
<path d="M3518 2193 c61 -2 163 -2 225 0 61 1 11 3 -113 3 -124 0 -174 -2
-112 -3z"/>
</g>
</svg>
